<svg width="64" height="64" viewBox="0 0 64 64" fill="none" xmlns="http://www.w3.org/2000/svg">
<g filter="url(#filter0_d_82_174)">
<rect x="8" y="4" width="48" height="48" rx="24" fill="white"/>
</g>
<g clip-path="url(#clip0_82_174)">
<path d="M33.4829 27.9518C32.7638 28.4427 32.1929 28.1802 32.1929 27.3013V24.2479L32.1898 24.2479C31.0547 24.2463 29.9446 24.5815 29.0001 25.2111C28.0556 25.8407 27.3191 26.7365 26.8839 27.7849C26.4488 28.8333 26.3345 29.9873 26.5556 31.1007C26.7766 32.2141 27.3231 33.2368 28.1258 34.0396C28.9284 34.8422 29.9513 35.3886 31.0647 35.6097C32.1781 35.8308 33.3321 35.7165 34.3805 35.2813C35.4289 34.8462 36.3246 34.1097 36.9542 33.1652C37.5839 32.2207 37.9191 31.1106 37.9174 29.9754C37.9157 28.7934 38.8725 27.8338 40.0546 27.8321C41.2366 27.8304 42.1962 28.7872 42.1979 29.9692C42.2008 31.9515 41.6154 33.89 40.5159 35.5394C39.4164 37.1888 37.8522 38.4749 36.0214 39.2348C34.1905 39.9947 32.1754 40.1942 30.2311 39.8082C28.2869 39.4222 26.5008 38.468 25.0991 37.0663C23.6974 35.6647 22.7431 33.8786 22.3571 31.9343C21.9711 29.99 22.1706 27.9748 22.9305 26.144C23.6904 24.3132 24.9765 22.749 26.6259 21.6495C28.2744 20.5505 30.2117 19.9652 32.1929 19.9675V16.914C32.1929 16.0351 32.7638 15.7383 33.4829 16.252L40.1488 21.1603C40.3042 21.2647 40.4317 21.4057 40.5197 21.5709C40.6077 21.7361 40.6538 21.9204 40.6538 22.1076C40.6538 22.2948 40.6077 22.4792 40.5197 22.6444C40.4317 22.8096 40.3042 22.9506 40.1488 23.055L33.4829 27.9518Z" fill="#AC9EFF"/>
</g>
<defs>
<filter id="filter0_d_82_174" x="0" y="0" width="64" height="64" filterUnits="userSpaceOnUse" color-interpolation-filters="sRGB">
<feFlood flood-opacity="0" result="BackgroundImageFix"/>
<feColorMatrix in="SourceAlpha" type="matrix" values="0 0 0 0 0 0 0 0 0 0 0 0 0 0 0 0 0 0 127 0" result="hardAlpha"/>
<feOffset dy="4"/>
<feGaussianBlur stdDeviation="4"/>
<feComposite in2="hardAlpha" operator="out"/>
<feColorMatrix type="matrix" values="0 0 0 0 0 0 0 0 0 0 0 0 0 0 0 0 0 0 0.1 0"/>
<feBlend mode="normal" in2="BackgroundImageFix" result="effect1_dropShadow_82_174"/>
<feBlend mode="normal" in="SourceGraphic" in2="effect1_dropShadow_82_174" result="shape"/>
</filter>
<clipPath id="clip0_82_174">
<rect width="24" height="24" fill="white" transform="translate(20 16)"/>
</clipPath>
</defs>
</svg>
